# AST/ASF file generated using VICON BodyLanguage
# -----------------------------------------------
:version 1.10
:name VICON
:units
  mass 1.0
  length 0.45
  angle deg
:documentation
   .ast/.asf automatically generated from VICON data using
   VICON BodyBuilder and BodyLanguage model FoxedUp or BRILLIANT.MOD
:root
   order TX TY TZ RX RY RZ
   axis XYZ
   position 0 0 0  
   orientation 0 -0 0 
:bonedata
  begin
     id 1 
     name lhipjoint
     direction 0.500677 -0.737119 0.453848 
     length 2.34727 
     axis 0 -0 0  XYZ
  end
  begin
     id 2 
     name lfemur
     direction 0.34202 -0.939693 0  
     length 7.53653  
     axis 0 -0 20  XYZ
    dof rx ry rz
    limits (-160.0 20.0)
           (-70.0 70.0)
           (-60.0 70.0)
  end
  begin
     id 3 
     name ltibia
     direction 0.34202 -0.939693 0   
     length 6.85572   
     axis 0 -0 20   XYZ
    dof rx
    limits (-10.0 170.0)
  end
  begin
     id 4 
     name lfoot
     direction 0.155313 -0.426718 0.890949   
     length 2.18324   
     axis -90 -1.13533e-015 20   XYZ
    dof rx rz
    limits (-45.0 90.0)
           (-70.0 20.0)
  end
  begin
     id 5 
     name ltoes
     direction 1.53474e-011 -4.21647e-011 1   
     length 1.06748   
     axis -90 -1.13533e-015 20   XYZ
    dof rx
    limits (-90.0 20.0)
  end
  begin
     id 6 
     name rhipjoint
     direction -0.632471 -0.659587 0.406111   
     length 2.62319  
     axis 0 -0 0  XYZ 
  end
  begin
     id 7 
     name rfemur
     direction -0.34202 -0.939693 0   
     length 7.21735   
     axis 0 -0 -20   XYZ
    dof rx ry rz
    limits (-160.0 20.0)
           (-70.0 70.0)
           (-70.0 60.0)
  end
  begin
     id 8 
     name rtibia
     direction -0.34202 -0.939693 0   
     length 7.02558   
     axis 0 -0 -20   XYZ
    dof rx
    limits (-10.0 170.0)
 end
 begin
     id 9 
     name rfoot
     direction -0.16057 -0.441164 0.882945   
     length 2.10014  
     axis -90 1.13533e-015 -20   XYZ
    dof rx rz
    limits (-45.0 90.0)
           (-20.0 70.0)
  end
  begin
     id 10 
     name rtoes
     direction -1.53553e-011 -4.2192e-011 1   
     length 1.02554   
     axis -90 1.13533e-015 -20   XYZ
    dof rx
    limits (-90.0 20.0)
  end
  begin
     id 11 
     name lowerback
     direction 0.0401429 0.998861 -0.0258085   
     length 1.80848   
     axis 0 -0 0   XYZ
    dof rx ry rz
    limits (-20.0 45.0)
           (-30.0 30.0)
           (-30.0 30.0)
  end
  begin
     id 12 
     name upperback
     direction -0.0130978 0.999914 -0.000352645   
     length 1.8116   
     axis 0 -0 0   XYZ
    dof rx ry rz
    limits (-20.0 45.0)
           (-30.0 30.0)
           (-30.0 30.0)
  end
  begin
     id 13 
     name thorax
     direction -0.0300198 0.999453 0.0138573   
     length 1.81778   
     axis 0 -0 0   XYZ
    dof rx ry rz
    limits (-20.0 45.0)
           (-30.0 30.0)
           (-30.0 30.0)
  end
  begin
     id 14 
     name lowerneck
     direction -0.0401726 0.999191 -0.00173647   
     length 2.10594   
     axis 0 -0 0   XYZ
    dof rx ry rz
    limits (-20.0 45.0)
           (-30.0 30.0)
           (-30.0 30.0)
  end
  begin
     id 15 
     name upperneck
     direction 0.0119835 0.998501 0.0534085   
     length 2.07325   
     axis 0 -0 0   XYZ
    dof rx ry rz
    limits (-20.0 45.0)
           (-30.0 30.0)
           (-30.0 30.0)
  end
  begin
     id 16
     name head
     direction 0.00628309 0.999826 0.0175921  
     length 2.15096  
     axis 0 -0 0   XYZ
    dof rx ry rz
    limits (-20.0 45.0)
           (-30.0 30.0)
           (-30.0 30.0)
  end
  begin
     id 17 
     name lclavicle
     direction 0.895501 0.429681 -0.115981  
     length 4.18092  
     axis 0 -0 0   XYZ
    dof ry rz
    limits (-20.0 10.0)
           (0.0 20.0)
  end
  begin
     id 18 
     name lhumerus
     direction 1 -4.48961e-011 -3.38433e-028   
     length 5.77237   
     axis 180 -30 -90   XYZ
    dof rx ry rz
    limits (-60.0 90.0)
           (-90.0 90.0)
           (-90.0 90.0)
  end
  begin
     id 19
     name lradius
     direction 1 -4.4901e-011 1.11983e-026   
     length 2.91878   
     axis 180 -30 -90   XYZ
    dof rx
    limits (-10.0 170.0)
  end
  begin
     id 20
     name lwrist
     direction 1 -4.48934e-011 1.88176e-026   
     length 1.45939   
     axis -1.23311e-014 90 90   XYZ
    dof ry
    limits (-180.0 0.0)
 end
  begin
     id 21 
     name lhand
     direction 1 -4.4895e-011 3.76352e-026   
     length 1.06566   
     axis -2.40147e-014 90 90   XYZ
    dof rx rz
    limits (-90.0 90.0)
           (-45.0 45.0)
  end
  begin
     id 22 
     name lfingers
     direction 1 -4.49005e-011 7.52705e-026   
     length 0.859162   
     axis -4.80295e-014 90 90   XYZ
    dof rx
    limits (0.0 90.0)
  end
  begin
     id 23
     name lthumb
     direction 0.707107 -6.34885e-011 0.707107   
     length 1.23359   
     axis -90 45 -9.86935e-015   XYZ
    dof rx rz
    limits (-45.0 45.0)
           (-45.0 45.0)
  end
  begin
     id 24 
     name rclavicle
     direction -0.91006 0.40451 -0.0903492   
     length 4.23293  
     axis 0 -0 0   XYZ 
    dof ry rz
    limits (-10.0 20.0)
           (-20.0 0.0)
  end
  begin
     id 25 
     name rhumerus
     direction -1 -4.4897e-011 1.7415e-027  
     length 5.49854   
     axis 180 30 90   XYZ
    dof rx ry rz
    limits (-90.0 60.0)
           (-90.0 90.0)
           (-90.0 90.0)
  end
  begin
     id 26 
     name rradius
     direction -1 -4.48963e-011 1.21259e-026   
     length 3.1186   
     axis 180 30 90   XYZ
    dof rx
    limits (-10.0 170.0)
  end
  begin
     id 27 
     name rwrist
     direction -1 -4.48967e-011 1.88176e-026   
     length 1.5593   
     axis -1.23311e-014 -90 -90   XYZ
    dof ry
    limits (-180.0 0.0)
  end
  begin
     id 28
     name rhand
     direction -1 -4.4895e-011 3.76352e-026   
     length 0.71207   
     axis -2.40147e-014 -90 -90   XYZ
    dof rx rz
    limits (-90.0 90.0)
           (-45.0 45.0)
  end
  begin
     id 29
     name rfingers
     direction -1 -4.49005e-011 7.52705e-026   
     length 0.574089   
     axis -4.80295e-014 -90 -90   XYZ
    dof rx
    limits (0.0 90.0)
  end
  begin
     id 30
     name rthumb
     direction -0.707107 -6.34982e-011 0.707107   
     length 0.824281   
     axis -90 -45 9.86935e-015   XYZ
    dof rx rz
    limits (-45.0 45.0)
           (-45.0 45.0)
  end
:hierarchy
  begin
    root lhipjoint rhipjoint lowerback
    lhipjoint lfemur
    lfemur ltibia
    ltibia lfoot
    lfoot ltoes
    rhipjoint rfemur
    rfemur rtibia
    rtibia rfoot
    rfoot rtoes
    lowerback upperback
    upperback thorax
    thorax lowerneck lclavicle rclavicle
    lowerneck upperneck
    upperneck head
    lclavicle lhumerus
    lhumerus lradius
    lradius lwrist
    lwrist lhand lthumb
    lhand lfingers
    rclavicle rhumerus
    rhumerus rradius
    rradius rwrist
    rwrist rhand rthumb
    rhand rfingers
  end

#!OML:ASF C:\ViconDB\ViconDB\414\Spring2016\042216\male.ASF
:FULLY-SPECIFIED
:DEGREES
397
root 23.4345 17.3804 10.5602 -43.3509 83.2051 -44.9892
lowerback -2.01529 0.353896 9.73165
upperback -0.892132 0.31078 -0.275712
thorax 0.25492 0.141921 -5.74629
lowerneck -1.96399 9.91144 0.101998
upperneck 1.74194 13.3414 -3.84864
head 1.14626 6.62946 -0.964696
rclavicle 1.42659e-014 -3.57812e-015
rhumerus -26.041 3.3736 -96.1707
rradius 33.6439
rwrist 23.945
rhand 11.3743 -19.0193
rfingers 7.12502
rthumb 36.4286 -45.2293
lclavicle 1.42659e-014 -3.57812e-015
lhumerus -43.5615 25.8629 75.2935
lradius 27.5422
lwrist -22.8561
lhand -4.65019 11.6999
lfingers 7.12502
lthumb 21.1295 40.5685
rfemur 20.105 5.52316 29.0919
rtibia 4.81556
rfoot 1.99605 -0.35697
rtoes -26.6457
lfemur -26.2862 -3.68628 -15.9875
ltibia 29.3662
lfoot -11.1202 14.2003
ltoes -7.55735
398
root 23.632 17.3937 10.5337 -43.1657 83.2 -44.6492
lowerback -1.87348 0.322853 9.97459
upperback -0.930446 0.282953 -0.392845
thorax 0.131266 0.1194 -6.00816
lowerneck -2.09205 9.81611 0.257845
upperneck 2.21377 13.2304 -3.83514
head 1.32552 6.56656 -0.965654
rclavicle -4.86401e-015 -1.86858e-014
rhumerus -26.4177 2.53136 -96.0004
rradius 32.6224
rwrist 24.5569
rhand 11.426 -18.9003
rfingers 7.12502
rthumb 36.4776 -45.0981
lclavicle -4.86401e-015 -1.86858e-014
lhumerus -43.2195 24.9253 75.8829
lradius 27.7319
lwrist -22.684
lhand -4.65423 11.7044
lfingers 7.12502
lthumb 21.1256 40.5735
rfemur 16.5679 5.50665 28.6975
rtibia 12.4111
rfoot 2.16271 0.180706
rtoes -28.1493
lfemur -25.4546 -3.52953 -16.2635
ltibia 29.5807
lfoot -11.9669 14.0507
ltoes -8.07442
399
root 23.8357 17.4084 10.5139 -40.2524 83.3906 -41.5628
lowerback -2.08582 0.252233 9.53304
upperback -0.753872 0.161773 -0.404827
thorax 0.413885 0.0790038 -5.77326
lowerneck -2.57867 9.79642 0.0946694
upperneck 2.77506 13.2408 -3.84724
head 1.57782 6.55594 -0.901436
rclavicle -1.40143e-014 1.41137e-014
rhumerus -26.4764 2.13246 -95.6195
rradius 31.5337
rwrist 25.3694
rhand 11.6143 -18.9029
rfingers 7.12502
rthumb 36.6558 -45.0556
lclavicle -1.40143e-014 1.41137e-014
lhumerus -42.6496 24.8116 76.4629
lradius 27.7449
lwrist -22.6582
lhand -4.93199 11.7509
lfingers 7.12502
lthumb 20.8588 40.6495
rfemur 13.9267 4.86757 27.6712
rtibia 18.017
rfoot 3.53182 0.91862
rtoes -29.8937
lfemur -24.5563 -2.75834 -17.0412
ltibia 29.671
lfoot -12.9403 13.2708
ltoes -9.21087
400
root 24.0328 17.4469 10.488 -38.442 83.4471 -39.6341
lowerback -2.05422 0.17842 9.49821
upperback -0.764404 0.0675421 -0.503449
thorax 0.369184 0.0288449 -5.85973
lowerneck -2.70518 9.7319 0.212727
upperneck 3.19651 13.1746 -3.90655
head 1.74784 6.51502 -0.919925
rclavicle -4.6497e-015 -1.98785e-016
rhumerus -26.8095 1.5215 -95.4283
rradius 30.5639
rwrist 26.2327
rhand 11.5623 -18.9944
rfingers 7.12502
rthumb 36.6066 -45.1595
lclavicle -4.6497e-015 -1.98785e-016
lhumerus -42.4498 24.916 76.5074
lradius 27.7961
lwrist -23.2436
lhand -5.13335 11.6026
lfingers 7.12502
lthumb 20.6653 40.5225
rfemur 11.4801 4.08224 26.834
rtibia 22.8741
rfoot 5.03312 1.92435
rtoes -32.5947
lfemur -23.5752 -2.36206 -17.5106
ltibia 29.5869
lfoot -13.582 13.2229
ltoes -9.29259
401
root 24.2247 17.4739 10.4811 -34.0575 83.4488 -35.2427
lowerback -2.16422 0.127714 8.89255
upperback -0.7909 0.0011278 -0.504018
thorax 0.393365 -0.00394984 -5.51943
lowerneck -2.7901 9.72046 0.0549204
upperneck 3.49271 13.1806 -3.86927
head 1.84454 6.5116 -0.871285
rclavicle -1.06039e-014 -1.70955e-014
rhumerus -27.0168 1.13835 -95.108
rradius 29.5059
rwrist 27.2842
rhand 11.7946 -19.074
rfingers 7.12502
rthumb 36.8264 -45.1832
lclavicle -1.06039e-014 -1.70955e-014
lhumerus -42.0811 24.5708 77.0135
lradius 28.2817
lwrist -22.0364
lhand -4.72613 11.8413
lfingers 7.12502
lthumb 21.0565 40.7181
rfemur 8.98986 3.89029 26.0424
rtibia 27.4488
rfoot 5.37569 2.09289
rtoes -34.4227
lfemur -22.6735 -1.68432 -18.1185
ltibia 29.2543
lfoot -14.1073 13.0565
ltoes -9.29362
402
root 24.4096 17.5016 10.4713 -32.5687 83.6004 -33.4907
lowerback -2.02223 -0.106092 8.38591
upperback -0.690656 -0.292386 -0.395446
thorax 0.374691 -0.148032 -5.12592
lowerneck -2.83987 9.71501 -0.240666
upperneck 3.6384 13.196 -3.87202
head 1.87964 6.5134 -0.819786
rclavicle -7.79609e-016 4.67144e-015
rhumerus -27.0284 1.08714 -94.7715
rradius 28.3141
rwrist 28.256
rhand 11.7731 -19.111
rfingers 7.12502
rthumb 36.8061 -45.2254
lclavicle -7.79609e-016 4.67144e-015
lhumerus -41.6565 24.2743 77.6347
lradius 28.408
lwrist -22.0382
lhand -5.12541 11.5447
lfingers 7.12502
lthumb 20.6729 40.4637
rfemur 6.93362 3.34003 25.4265
rtibia 31.6603
rfoot 4.93133 1.76563
rtoes -34.0471
lfemur -21.3947 -1.19052 -18.5877
ltibia 28.6672
lfoot -14.1972 12.5352
ltoes -10.6508
403
root 24.5919 17.5399 10.4633 -27.1848 83.4807 -27.9662
lowerback -1.80243 -0.087955 7.97698
upperback -0.742689 -0.239842 -0.602183
thorax 0.206562 -0.131209 -5.10888
lowerneck -2.78059 9.6456 -0.177816
upperneck 3.79706 13.1051 -3.8254
head 1.92018 6.46787 -0.816614
rclavicle 1.61202e-015 -1.54058e-014
rhumerus -27.2186 0.283791 -94.5701
rradius 27.2098
rwrist 29.3352
rhand 11.6883 -18.9974
rfingers 7.12502
rthumb 36.7258 -45.1322
lclavicle 1.61202e-015 -1.54058e-014
lhumerus -41.3032 23.4944 78.0471
lradius 28.7077
lwrist -21.7895
lhand -5.43246 11.3425
lfingers 7.12502
lthumb 20.3779 40.2934
rfemur 4.64716 3.12735 24.5254
rtibia 35.6614
rfoot 3.87917 0.980687
rtoes -32.6619
lfemur -20.1375 -0.704048 -19.2184
ltibia 27.9048
lfoot -14.2924 12.5426
ltoes -11.426
404
root 24.7667 17.5777 10.4623 -22.3009 83.2834 -22.9645
lowerback -1.54366 -0.0829866 7.43661
upperback -0.820289 -0.201017 -0.719456
thorax -0.0110645 -0.122242 -4.92405
lowerneck -2.53214 9.5731 -0.024099
upperneck 3.82603 13.0087 -3.95554
head 1.90575 6.4226 -0.894776
rclavicle 1.78906e-015 3.57812e-015
rhumerus -27.4193 -0.731886 -94.193
rradius 26.2168
rwrist 30.8711
rhand 12.0968 -18.8734
rfingers 7.12502
rthumb 37.1122 -44.9088
lclavicle 1.78906e-015 3.57812e-015
lhumerus -40.8251 22.3422 78.7532
lradius 29.0885
lwrist -20.5977
lhand -5.67446 11.4604
lfingers 7.12502
lthumb 20.1453 40.4359
rfemur 2.40575 2.76935 23.678
rtibia 39.1378
rfoot 2.69006 -0.0837997
rtoes -31.4329
lfemur -18.893 -0.188048 -19.7689
ltibia 27.0116
lfoot -14.5272 12.5088
ltoes -11.6221
405
root 24.9339 17.612 10.458 -16.8573 83.2996 -17.3188
lowerback -1.19914 -0.240071 6.60324
upperback -0.848903 -0.375169 -0.809572
thorax -0.252068 -0.216724 -4.54707
lowerneck -2.28532 9.63033 -0.00134154
upperneck 3.69455 13.0799 -4.03253
head 1.82924 6.4629 -0.936267
rclavicle 5.78339e-015 8.94531e-015
rhumerus -27.5374 -1.34814 -93.7673
rradius 25.1674
rwrist 32.8932
rhand 12.1169 -18.7141
rfingers 7.12502
rthumb 37.1313 -44.7445
lclavicle 5.78339e-015 8.94531e-015
lhumerus -40.4507 22.1134 79.0497
lradius 29.4167
lwrist -20.0874
lhand -5.6221 11.4865
lfingers 7.12502
lthumb 20.1956 40.4567
rfemur 0.277352 2.29079 22.6758
rtibia 42.2207
rfoot 1.47647 -1.39498
rtoes -31.7576
lfemur -17.5342 0.343009 -20.562
ltibia 25.9201
lfoot -15.2359 12.3341
ltoes -10.1583
406
root 25.0987 17.6418 10.4549 -15.5697 83.2682 -15.755
lowerback -0.752862 -0.378986 6.39141
upperback -0.832499 -0.52929 -0.881435
thorax -0.503743 -0.301616 -4.49974
lowerneck -2.20319 9.59509 0.0771292
upperneck 3.68542 13.0269 -4.01428
head 1.81506 6.43883 -0.948928
rclavicle -1.43094e-014 -8.54774e-015
rhumerus -27.6895 -2.44448 -93.4037
rradius 24.4349
rwrist 33.9906
rhand 12.4643 -19.0536
rfingers 7.12502
rthumb 37.4597 -44.9978
lclavicle -1.43094e-014 -8.54774e-015
lhumerus -40.0369 22.1002 79.0507
lradius 29.7168
lwrist -20.0478
lhand -5.49369 11.3948
lfingers 7.12502
lthumb 20.319 40.3519
rfemur -1.5837 1.83385 22.2937
rtibia 44.7848
rfoot 0.263449 -2.93238
rtoes -31.7627
lfemur -16.1016 0.758226 -20.8185
ltibia 24.83
lfoot -15.6291 12.0469
ltoes -9.69619
407
root 25.2572 17.678 10.4533 -12.1129 83.4173 -12.195
lowerback -0.440851 -0.61583 5.58
upperback -0.904843 -0.82122 -0.792864
thorax -0.775596 -0.452442 -3.94546
lowerneck -1.99305 9.58763 -0.135654
upperneck 3.65 13.0255 -4.07116
head 1.75626 6.43906 -0.94582
rclavicle -1.72756e-014 6.75868e-015
rhumerus -27.9431 -3.10273 -92.7872
rradius 23.8021
rwrist 35.1491
rhand 12.351 -19.3468
rfingers 7.12502
rthumb 37.3526 -45.3193
lclavicle -1.72756e-014 6.75868e-015
lhumerus -39.5419 21.4227 79.8065
lradius 30.1319
lwrist -18.5838
lhand -5.59691 11.9502
lfingers 7.12502
lthumb 20.2198 40.9178
rfemur -3.5541 1.46358 21.6673
rtibia 46.908
rfoot -1.04237 -4.4928
rtoes -31.3294
lfemur -14.8637 0.802314 -21.3506
ltibia 23.7169
lfoot -15.5859 11.9523
ltoes -9.99698
408
root 25.4142 17.7093 10.4485 -12.2773 83.4678 -12.22
lowerback -0.0587584 -0.758533 5.52079
upperback -0.933953 -0.988191 -0.773167
thorax -1.03704 -0.543713 -3.88495
lowerneck -2.00627 9.51113 -0.298501
upperneck 3.71323 12.9184 -3.83363
head 1.74657 6.3863 -0.849805
rclavicle -7.26806e-016 -7.95139e-016
rhumerus -28.2724 -4.29674 -92.0906
rradius 23.2728
rwrist 37.2042
rhand 12.3719 -18.8966
rfingers 7.12502
rthumb 37.3724 -44.8639
lclavicle -7.26806e-016 -7.95139e-016
lhumerus -39.0276 20.9921 80.1271
lradius 30.2598
lwrist -18.6694
lhand -5.91401 11.7864
lfingers 7.12502
lthumb 19.915 40.7859
rfemur -5.34494 1.08366 21.5108
rtibia 48.529
rfoot -2.38151 -5.88247
rtoes -30.9124
lfemur -13.619 0.994395 -21.4256
ltibia 22.6668
lfoot -15.2171 11.6183
ltoes -11.2308
409
root 25.5726 17.7361 10.4455 -11.3296 83.6665 -11.1666
lowerback 0.286644 -0.897558 5.3905
upperback -1.01588 -1.15363 -0.877506
thorax -1.33294 -0.636157 -3.91103
lowerneck -1.95299 9.40939 -0.2283
upperneck 3.83541 12.7759 -3.67659
head 1.767 6.31729 -0.816316
rclavicle 1.27999e-014 6.85807e-015
rhumerus -28.78 -5.83378 -91.4527
rradius 22.986
rwrist 38.7234
rhand 12.3178 -18.7689
rfingers 7.12502
rthumb 37.3212 -44.7496
lclavicle 1.27999e-014 6.85807e-015
lhumerus -38.5863 20.4975 80.2336
lradius 30.3114
lwrist -19.0634
lhand -6.03181 11.46
lfingers 7.12502
lthumb 19.8018 40.4713
rfemur -7.06082 0.547454 21.2075
rtibia 49.7181
rfoot -3.73885 -6.98576
rtoes -30.715
lfemur -12.4566 0.862659 -21.6488
ltibia 21.7184
lfoot -15.1161 11.5266
ltoes -11.7947
410
root 25.7292 17.7579 10.4403 -10.375 83.9064 -10.0282
lowerback 0.601792 -1.06863 5.08804
upperback -0.987546 -1.36831 -0.839151
thorax -1.4951 -0.744026 -3.69096
lowerneck -1.93197 9.32633 -0.33902
upperneck 3.8413 12.6652 -3.61355
head 1.75061 6.26201 -0.784315
rclavicle 1.4151e-014 -8.44835e-015
rhumerus -29.1973 -6.63722 -90.7992
rradius 22.8429
rwrist 39.3509
rhand 12.1899 -18.9115
rfingers 7.12502
rthumb 37.2003 -44.9239
lclavicle 1.4151e-014 -8.44835e-015
lhumerus -37.9347 20.177 80.6687
lradius 30.4315
lwrist -18.664
lhand -6.25675 11.5837
lfingers 7.12502
lthumb 19.5855 40.6172
rfemur -8.58257 0.215608 20.9719
rtibia 50.549
rfoot -4.74208 -8.03947
rtoes -30.0089
lfemur -11.2276 0.826925 -21.8893
ltibia 20.7866
lfoot -15.2411 11.3687
ltoes -11.8615
411
root 25.8861 17.7688 10.444 -13.2052 84.2076 -12.7416
lowerback 0.771632 -1.2525 5.0862
upperback -0.91445 -1.60461 -0.719762
thorax -1.53567 -0.860937 -3.55773
lowerneck -1.94975 9.2052 -0.41246
upperneck 3.79783 12.4955 -3.48148
head 1.72153 6.17882 -0.738068
rclavicle 2.12513e-014 -2.08724e-015
rhumerus -29.6199 -7.51515 -90.2254
rradius 22.8847
rwrist 39.7227
rhand 12.2224 -19.1423
rfingers 7.12502
rthumb 37.231 -45.1467
lclavicle 2.12513e-014 -2.08724e-015
lhumerus -37.256 19.7713 81.0558
lradius 30.6486
lwrist -18.3691
lhand -6.26905 11.9712
lfingers 7.12502
lthumb 19.5737 41.0058
rfemur -10.0414 -0.345118 21.1584
rtibia 50.9953
rfoot -5.74635 -8.88426
rtoes -30.1578
lfemur -10.1118 0.854005 -21.705
ltibia 19.9715
lfoot -15.494 11.0728
ltoes -11.8807
